<svg xmlns="http://www.w3.org/2000/svg" viewBox="0 0 25 25"><defs><style>.cls-1{fill:#858585;}</style></defs><g id="Capa_2" data-name="Capa 2"><g id="Capa_1-2" data-name="Capa 1"><path class="cls-1" d="M23.05,7.23H2V4.88a1,1,0,0,1,1-1H4.1v2h2V3.91H19v2H20.9V3.91h1.17a1,1,0,0,1,1,1Zm0,14.84a1,1,0,0,1-1,1H2.93a1,1,0,0,1-1-1V9.18h21.1ZM22.07,2H20.9V0H19V2H6.05V0H4.1V2H2.93A2.93,2.93,0,0,0,0,4.88V22.07A2.93,2.93,0,0,0,2.93,25H22.07A2.93,2.93,0,0,0,25,22.07V4.88A2.93,2.93,0,0,0,22.07,2Z"/><rect class="cls-1" x="3.71" y="11.23" width="1.95" height="1.95"/><rect class="cls-1" x="7.62" y="11.23" width="1.95" height="1.95"/><rect class="cls-1" x="11.52" y="11.23" width="1.95" height="1.95"/><rect class="cls-1" x="15.43" y="11.23" width="1.95" height="1.95"/><rect class="cls-1" x="19.34" y="11.23" width="1.95" height="1.95"/><rect class="cls-1" x="3.71" y="15.14" width="1.95" height="1.95"/><rect class="cls-1" x="7.62" y="15.14" width="1.95" height="1.95"/><rect class="cls-1" x="11.52" y="15.14" width="1.95" height="1.95"/><rect class="cls-1" x="15.43" y="15.14" width="1.95" height="1.95"/><rect class="cls-1" x="3.71" y="19.04" width="1.95" height="1.95"/><rect class="cls-1" x="7.62" y="19.04" width="1.95" height="1.95"/><rect class="cls-1" x="11.52" y="19.04" width="1.95" height="1.95"/><rect class="cls-1" x="15.43" y="19.04" width="1.95" height="1.95"/><rect class="cls-1" x="19.34" y="15.14" width="1.95" height="1.95"/></g></g></svg>