<svg xmlns="http://www.w3.org/2000/svg" viewBox="0 0 35.77 36.64"><defs><style>.cls-1{fill:#fff;}</style></defs><g id="Capa_2" data-name="Capa 2"><g id="Capa_1-2" data-name="Capa 1"><polygon class="cls-1" points="35.77 26.43 0.85 26.43 3.75 19.63 3.75 5.8 0 1.28 1.54 0 5.75 5.08 5.75 20.04 3.87 24.43 35.77 24.43 35.77 26.43"/><polygon class="cls-1" points="28.83 20.6 5.14 20.6 5.14 18.6 27.38 18.6 31.48 6.01 5.14 6.01 5.14 4.01 34.23 4.01 28.83 20.6"/><path class="cls-1" d="M5.14,36.64a3.92,3.92,0,1,1,3.92-3.92A3.92,3.92,0,0,1,5.14,36.64Zm0-5.83a1.92,1.92,0,1,0,1.92,1.91A1.92,1.92,0,0,0,5.14,30.81Z"/><path class="cls-1" d="M31.39,36.64a3.92,3.92,0,1,1,3.92-3.92A3.92,3.92,0,0,1,31.39,36.64Zm0-5.83a1.92,1.92,0,1,0,1.92,1.91A1.92,1.92,0,0,0,31.39,30.81Z"/></g></g></svg>