<svg xmlns="http://www.w3.org/2000/svg" viewBox="0 0 29.77 30.64"><defs><style>.cls-1{fill:#29b0be;}</style></defs><g id="Capa_2" data-name="Capa 2"><g id="Capa_1-2" data-name="Capa 1"><polygon class="cls-1" points="29.77 22.18 0.57 22.18 3.06 16.34 3.06 4.97 0 1.28 1.54 0 5.07 4.25 5.07 16.75 3.6 20.18 29.77 20.18 29.77 22.18"/><polygon class="cls-1" points="24.14 17.35 4.39 17.35 4.39 15.35 22.69 15.35 25.98 5.26 4.39 5.26 4.39 3.26 28.73 3.26 24.14 17.35"/><path class="cls-1" d="M4.39,30.64a3.42,3.42,0,1,1,3.42-3.42A3.42,3.42,0,0,1,4.39,30.64Zm0-4.84a1.42,1.42,0,1,0,1.42,1.42A1.42,1.42,0,0,0,4.39,25.8Z"/><path class="cls-1" d="M26.14,30.64a3.42,3.42,0,1,1,3.42-3.42A3.42,3.42,0,0,1,26.14,30.64Zm0-4.84a1.42,1.42,0,1,0,1.42,1.42A1.42,1.42,0,0,0,26.14,25.8Z"/></g></g></svg>