<svg xmlns="http://www.w3.org/2000/svg" viewBox="0 0 20 25"><defs><style>.cls-1{fill:#fff;}</style></defs><g id="Capa_2" data-name="Capa 2"><g id="Capa_1-2" data-name="Capa 1"><path class="cls-1" d="M16.61,22.69a.78.78,0,0,1-.77.75H4.16a.78.78,0,0,1-.77-.75L2.73,8.59H17.27ZM1.54,5.08a.38.38,0,0,1,.38-.39H18.08a.38.38,0,0,1,.38.39V7H1.54ZM7.69,2.34a.78.78,0,0,1,.77-.78h3.08a.78.78,0,0,1,.77.78v.79H7.69Zm10.39.79H13.85V2.34A2.33,2.33,0,0,0,11.54,0H8.46A2.33,2.33,0,0,0,6.15,2.34v.79H1.92A1.93,1.93,0,0,0,0,5.08V7.81a.77.77,0,0,0,.77.78h.42l.66,14.18A2.33,2.33,0,0,0,4.16,25H15.84a2.33,2.33,0,0,0,2.31-2.23l.66-14.18h.42A.77.77,0,0,0,20,7.81V5.08A1.93,1.93,0,0,0,18.08,3.13Z"/><path class="cls-1" d="M10,21.88a.78.78,0,0,0,.77-.79V10.94a.77.77,0,1,0-1.54,0V21.09A.78.78,0,0,0,10,21.88Z"/><path class="cls-1" d="M13.85,21.88a.78.78,0,0,0,.77-.79V10.94a.77.77,0,1,0-1.54,0V21.09A.77.77,0,0,0,13.85,21.88Z"/><path class="cls-1" d="M6.15,21.88a.77.77,0,0,0,.77-.79V10.94a.77.77,0,1,0-1.54,0V21.09A.78.78,0,0,0,6.15,21.88Z"/></g></g></svg>