<svg xmlns="http://www.w3.org/2000/svg" viewBox="0 0 35 35"><defs><style>.cls-1{fill:#fff;}</style></defs><g id="Capa_2" data-name="Capa 2"><g id="Capa_1-2" data-name="Capa 1"><path class="cls-1" d="M26.39,15.72A1.37,1.37,0,1,0,25,14.35,1.36,1.36,0,0,0,26.39,15.72Z"/><path class="cls-1" d="M29.53,2.73H27.75V1.37a1.37,1.37,0,1,0-2.73,0V2.73H18.8V1.37a1.37,1.37,0,0,0-2.74,0V2.73H9.91V1.37a1.37,1.37,0,1,0-2.73,0V2.73H5.47A5.48,5.48,0,0,0,0,8.2V29.53A5.47,5.47,0,0,0,5.47,35H15.93a1.37,1.37,0,0,0,0-2.73H5.47a2.74,2.74,0,0,1-2.74-2.74V8.2A2.74,2.74,0,0,1,5.47,5.47H7.18V6.84a1.37,1.37,0,0,0,2.73,0V5.47h6.15V6.84a1.37,1.37,0,0,0,2.74,0V5.47H25V6.84a1.37,1.37,0,0,0,2.73,0V5.47h1.78A2.74,2.74,0,0,1,32.27,8.2V16A1.37,1.37,0,0,0,35,16V8.2A5.48,5.48,0,0,0,29.53,2.73Z"/><path class="cls-1" d="M26.73,32.27a5.54,5.54,0,1,1,5.54-5.54A5.55,5.55,0,0,1,26.73,32.27Zm0-13.81A8.27,8.27,0,1,0,35,26.73,8.28,8.28,0,0,0,26.73,18.46Z"/><path class="cls-1" d="M28.71,25.36H28.1V23.93a1.37,1.37,0,1,0-2.74,0v2.8a1.37,1.37,0,0,0,1.37,1.37h2a1.37,1.37,0,0,0,0-2.74Z"/><path class="cls-1" d="M20.44,15.72a1.37,1.37,0,1,0-1.37-1.37A1.37,1.37,0,0,0,20.44,15.72Z"/><circle class="cls-1" cx="14.49" cy="20.3" r="1.37" transform="translate(-5.84 34.76) rotate(-89.89)"/><path class="cls-1" d="M8.54,15.72a1.37,1.37,0,1,0-1.36-1.37A1.37,1.37,0,0,0,8.54,15.72Z"/><circle class="cls-1" cx="8.54" cy="20.3" r="1.37" transform="translate(-11.77 28.81) rotate(-89.89)"/><circle class="cls-1" cx="8.54" cy="26.25" r="1.37" transform="translate(-17.72 34.74) rotate(-89.89)"/><circle class="cls-1" cx="14.49" cy="26.25" r="1.37" transform="translate(-11.79 40.69) rotate(-89.89)"/><path class="cls-1" d="M14.49,15.72a1.37,1.37,0,1,0-1.36-1.37A1.37,1.37,0,0,0,14.49,15.72Z"/></g></g></svg>