<svg xmlns="http://www.w3.org/2000/svg" viewBox="0 0 44 39.92"><defs><style>.cls-1{fill:#fff;}</style></defs><g id="Capa_2" data-name="Capa 2"><g id="Capa_1-2" data-name="Capa 1"><path class="cls-1" d="M36.45,17.11a.65.65,0,0,0-.84.35,2.36,2.36,0,0,1-3.84.77,2.23,2.23,0,0,1-.52-.77.65.65,0,0,0-.84-.35.63.63,0,0,0-.35.83,3.42,3.42,0,0,0,.8,1.19,3.66,3.66,0,0,0,6-1.19A.64.64,0,0,0,36.45,17.11Z"/><path class="cls-1" d="M29.73,12.74a.64.64,0,0,0-.65.63v.36a.65.65,0,0,0,1.29,0v-.36A.64.64,0,0,0,29.73,12.74Z"/><path class="cls-1" d="M37.14,12.74a.64.64,0,0,0-.65.63v.36a.65.65,0,0,0,1.29,0v-.36A.64.64,0,0,0,37.14,12.74Z"/><path class="cls-1" d="M14.35,17.11a.64.64,0,0,0-.84.35,2.35,2.35,0,0,1-2.18,1.45,2.32,2.32,0,0,1-2.18-1.45.65.65,0,0,0-.84-.35.64.64,0,0,0-.36.83,3.72,3.72,0,0,0,.8,1.19,3.66,3.66,0,0,0,5.95-1.19A.63.63,0,0,0,14.35,17.11Z"/><path class="cls-1" d="M7.62,12.74a.64.64,0,0,0-.64.63v.36a.65.65,0,0,0,1.29,0v-.36A.64.64,0,0,0,7.62,12.74Z"/><path class="cls-1" d="M15,12.74a.64.64,0,0,0-.64.63v.36a.65.65,0,0,0,1.29,0v-.36A.64.64,0,0,0,15,12.74Z"/><path class="cls-1" d="M25.45,18.13a7.94,7.94,0,0,0,3,5.22H26.32a2.16,2.16,0,0,1-2.17-2.14V17.74A2.51,2.51,0,0,0,25.45,18.13Zm0-4.24H26a.64.64,0,0,0,.65-.64V10a17.17,17.17,0,0,0,2.49.18A17.36,17.36,0,0,0,39.49,6.77a5.78,5.78,0,0,1,.7,2.77v3.71a.64.64,0,0,0,.64.64h.58A1.08,1.08,0,0,1,42.49,15v.81a1.08,1.08,0,0,1-1.08,1.07h-.59a.64.64,0,0,0-.64.6A6.63,6.63,0,0,1,38.09,22,6.77,6.77,0,0,1,36,23.3l0,0a6.9,6.9,0,0,1-5,0h0a6.68,6.68,0,0,1-4.19-5.85.65.65,0,0,0-.65-.6h-.58a1.08,1.08,0,0,1-1.09-1.07V15A1.08,1.08,0,0,1,25.46,13.89Zm17.25,3.85v3.47a2.16,2.16,0,0,1-2.17,2.14H38.42c.19-.15.38-.31.56-.48a7.87,7.87,0,0,0,2.43-4.74A2.48,2.48,0,0,0,42.71,17.74Zm-7.15,9.39c0,.71-1.16,1.7-2.13,2.31-1-.61-2.13-1.6-2.13-2.31V24.79a8.29,8.29,0,0,0,2.13.28,7.93,7.93,0,0,0,2.13-.29Zm-15.5,3.61v7.9H18.25V34.36a.65.65,0,0,0-1.29,0v4.28H5.7V34.36a.65.65,0,0,0-1.29,0v4.28H2.6v-6H3.82a1.82,1.82,0,0,0,1.83-1.81V26.92a3.91,3.91,0,0,1,.91-.11H7.91v.32a3.42,3.42,0,0,0,5.84,2.39,3.37,3.37,0,0,0,1-2.39v-.32h1.34A4,4,0,0,1,20.06,30.74ZM1.29,30.45V27a1,1,0,0,1,1-1H3.82a.54.54,0,0,1,.54.53v4.32a.54.54,0,0,1-.54.53H2.25A1,1,0,0,1,1.29,30.45Zm12.17-5.66v2.34a2.1,2.1,0,0,1-.62,1.49A2.14,2.14,0,0,1,9.2,27.13V24.79a8.29,8.29,0,0,0,2.13.28A8.41,8.41,0,0,0,13.46,24.79ZM4.58,17.45a.63.63,0,0,0-.64-.6H3.35a1.08,1.08,0,0,1-1.08-1.07V15a1.08,1.08,0,0,1,1.08-1.08h.58a.63.63,0,0,0,.64-.64V11.14A2.57,2.57,0,0,0,7,9.42a8.28,8.28,0,0,0,1.92,1.36c3,1.57,6.51,1.22,9.16.53v1.94a.64.64,0,0,0,.65.64h.57A1.08,1.08,0,0,1,20.39,15v.81a1.08,1.08,0,0,1-1.09,1.07h-.58a.64.64,0,0,0-.65.6A6.66,6.66,0,0,1,16,22a6.78,6.78,0,0,1-2.13,1.36h0a6.72,6.72,0,0,1-2.52.48,6.81,6.81,0,0,1-2.52-.48h0A6.69,6.69,0,0,1,4.58,17.45ZM43.36,9.18A.64.64,0,0,0,44,8.55V6.77a4.59,4.59,0,0,0-4.61-4.56h-.86L38.42,2a3.29,3.29,0,0,0-3-2H31.12a8.23,8.23,0,0,0-8.26,8.17v13a3.45,3.45,0,0,0,3.46,3.42H30v.9H14.75V24.31a8.16,8.16,0,0,0,2.13-1.44,8,8,0,0,0,2.43-4.74,2.38,2.38,0,0,0,2.37-2.35V15a2.3,2.3,0,0,0-.56-1.51l1.49-5.82a.65.65,0,0,0-.47-.77.63.63,0,0,0-.78.46L20,12.71a2.43,2.43,0,0,0-.61-.09V10.46a.62.62,0,0,0-.26-.51.65.65,0,0,0-.57-.1c-3.53,1.08-6.63,1-8.95-.16A6.27,6.27,0,0,1,7.12,7.57a.66.66,0,0,0-.73-.3.64.64,0,0,0-.48.62c0,1.58-.34,1.92-2,2a.65.65,0,0,0-.61.64v2.06a2.14,2.14,0,0,0-.67.11,20.35,20.35,0,0,1-.51-2.22,38.73,38.73,0,0,1,0-4v0A1.91,1.91,0,0,1,4,4.56H5a.66.66,0,0,0,.46-.19l2.3-2.28a2,2,0,0,1,1.8-.5L17.67,3.5a5.64,5.64,0,0,0,1.3.15,5.7,5.7,0,0,0,3.52-1.22s0,0,.07,0a0,0,0,0,1,0,.07L22.1,4.41a.64.64,0,0,0,.47.78.65.65,0,0,0,.78-.47l.49-1.91a1.31,1.31,0,0,0-.58-1.45,1.35,1.35,0,0,0-1.58.07A4.35,4.35,0,0,1,19,2.37a4.88,4.88,0,0,1-1-.11L9.86.35a3.21,3.21,0,0,0-3,.84L4.73,3.28H4A3.19,3.19,0,0,0,.82,6.44a39.5,39.5,0,0,0,0,4.23,21.77,21.77,0,0,0,.66,2.85A2.3,2.3,0,0,0,1,15v.81a2.37,2.37,0,0,0,2.37,2.35,8,8,0,0,0,4.56,6.18v1.22H6.56a5.65,5.65,0,0,0-1.16.13,1.82,1.82,0,0,0-1.58-.91H2.25A2.24,2.24,0,0,0,0,27v3.47a2.22,2.22,0,0,0,1.31,2v6.81a.65.65,0,0,0,.65.64H20.7a.65.65,0,0,0,.65-.64V30.74a5.17,5.17,0,0,0-1.82-3.93H30v.32c0,1.84,2.79,3.43,3.11,3.61a.68.68,0,0,0,.31.08.72.72,0,0,0,.32-.08c.31-.18,3.1-1.77,3.1-3.61v-.32H38.2a4,4,0,0,1,4,3.93v7.9H40.35V34.36a.65.65,0,0,0-1.29,0v4.28H27.8V31.3a.64.64,0,0,0-.64-.64H23.29a.64.64,0,1,0,0,1.28h3.22v7.34a.65.65,0,0,0,.65.64H42.8a.65.65,0,0,0,.65-.64V30.74a5.24,5.24,0,0,0-5.25-5.21H36.85v-.9h3.69A3.45,3.45,0,0,0,44,21.21V11.56a.65.65,0,0,0-1.29,0V13a2.38,2.38,0,0,0-1.23-.38V9.54a7.08,7.08,0,0,0-1.29-4.08.73.73,0,0,0-.44-.27.69.69,0,0,0-.5.14A16,16,0,0,1,29.17,8.9a16.77,16.77,0,0,1-3-.28.65.65,0,0,0-.52.12.61.61,0,0,0-.24.47c0,.1,0,.21,0,.33v3.08a2.38,2.38,0,0,0-1.24.38V8.17a6.94,6.94,0,0,1,7-6.89h4.27a2,2,0,0,1,1.85,1.2l.27.62a.64.64,0,0,0,.59.39h1.29a3.3,3.3,0,0,1,3.32,3.28V8.55A.64.64,0,0,0,43.36,9.18Z"/></g></g></svg>