<svg xmlns="http://www.w3.org/2000/svg" viewBox="0 0 22 19.98"><defs><style>.cls-1{fill:#fff;}</style></defs><g id="Capa_2" data-name="Capa 2"><g id="Capa_1-2" data-name="Capa 1"><path class="cls-1" d="M6.15,1.32A4.59,4.59,0,0,0,2.69,2.85a5.78,5.78,0,0,0-1.4,3.9,7.12,7.12,0,0,0,1.88,4.63,46.65,46.65,0,0,0,5.31,5.07h0c.76.66,1.62,1.4,2.52,2.2.9-.8,1.76-1.55,2.52-2.21a46.65,46.65,0,0,0,5.31-5.07,7.12,7.12,0,0,0,1.88-4.63,5.78,5.78,0,0,0-1.4-3.9,4.59,4.59,0,0,0-3.46-1.53,4.18,4.18,0,0,0-2.66.94A6.4,6.4,0,0,0,11.7,4a.8.8,0,0,1-1.4,0A6.4,6.4,0,0,0,8.81,2.26,4.18,4.18,0,0,0,6.15,1.32ZM11,20a1.28,1.28,0,0,1-.85-.33c-.89-.79-1.75-1.54-2.5-2.19h0a47.47,47.47,0,0,1-5.46-5.23A8.43,8.43,0,0,1,0,6.75,7.06,7.06,0,0,1,1.75,2a5.82,5.82,0,0,1,4.4-2A5.43,5.43,0,0,1,9.6,1.22,7.12,7.12,0,0,1,11,2.71a7.12,7.12,0,0,1,1.4-1.49A5.43,5.43,0,0,1,15.85,0a5.82,5.82,0,0,1,4.4,2A7.06,7.06,0,0,1,22,6.75a8.43,8.43,0,0,1-2.18,5.47,47.47,47.47,0,0,1-5.46,5.23l-2.51,2.2A1.28,1.28,0,0,1,11,20Z"/></g></g></svg>