<svg xmlns="http://www.w3.org/2000/svg" viewBox="0 0 21 19.95"><defs><style>.cls-1{fill:#fff;}</style></defs><g id="Capa_2" data-name="Capa 2"><g id="Capa_1-2" data-name="Capa 1"><path class="cls-1" d="M19.15,13a.44.44,0,0,0-.25.75,1.05,1.05,0,0,1,.35.79,1.1,1.1,0,0,1-1,1.07.45.45,0,0,0-.37.29.44.44,0,0,0,.12.45,1.09,1.09,0,0,1,.32,1,1.13,1.13,0,0,1-1.13.83h-8a4.21,4.21,0,0,1-2.32-.74.43.43,0,0,0-.47-.09.42.42,0,0,0-.28.4,1.31,1.31,0,0,1-1.31,1.3H2.19a1.31,1.31,0,0,1-1.32-1.3V10.84a1.31,1.31,0,0,1,1.32-1.3H6.12V10a.44.44,0,0,0,.64.39l.87-.43a.45.45,0,0,0,.2-.21l2.63-5.64a.37.37,0,0,0,0-.18V1.1a1.85,1.85,0,0,1,.87-.23,2.87,2.87,0,0,1,1.76,2.6,13.24,13.24,0,0,1-.85,3.75.43.43,0,0,0,.41.58h6A1.38,1.38,0,0,1,20.12,9a1.28,1.28,0,0,1-.62,1.23.42.42,0,0,0-.21.39.45.45,0,0,0,.24.37,1,1,0,0,1,.59.95A1.07,1.07,0,0,1,19.15,13ZM21,11.92a1.91,1.91,0,0,0-.57-1.36A2.13,2.13,0,0,0,21,8.9a2.25,2.25,0,0,0-2.28-2H13.3A12.3,12.3,0,0,0,14,3.47C14,1.59,12.39,0,11.37,0A2.78,2.78,0,0,0,9.79.53a.45.45,0,0,0-.17.34V3.81L7.1,9.22l-.1,0V9.11a.44.44,0,0,0-.44-.44H2.19A2.18,2.18,0,0,0,0,10.84v6.94A2.19,2.19,0,0,0,2.19,20H4.81a2.18,2.18,0,0,0,2.06-1.44,5.79,5.79,0,0,0,2.32.57h8a2,2,0,0,0,2-1.52,1.94,1.94,0,0,0-.16-1.3,1.93,1.93,0,0,0,1.09-1.73,2,2,0,0,0-.21-.87A1.93,1.93,0,0,0,21,11.92Z"/><path class="cls-1" d="M6.56,9.54a.44.44,0,0,0-.44.43v7.81a.44.44,0,0,0,.88,0V10A.44.44,0,0,0,6.56,9.54Z"/></g></g></svg>