<svg xmlns="http://www.w3.org/2000/svg" viewBox="0 0 35 35"><defs><style>.cls-1{fill:#fff;}</style></defs><g id="Capa_2" data-name="Capa 2"><g id="Capa_1-2" data-name="Capa 1"><path class="cls-1" d="M33,4.64a9.12,9.12,0,0,1-5.64,8.44,9.91,9.91,0,0,0,.32-1.64l1-9.39h3.25a1,1,0,0,1,1,1ZM19.32,18.23a1,1,0,0,0-.79,1V21.6a3.08,3.08,0,0,0,3.07,3.08,1,1,0,0,1,1,1v1H12.37v-1a1,1,0,0,1,1-1,3.08,3.08,0,0,0,3.07-3.08V19.23a1,1,0,0,0-.79-1,8.15,8.15,0,0,1-6.27-7l-1-9.17H26.61l-1,9.17A8.15,8.15,0,0,1,19.32,18.23ZM10.32,33V28.78H24.68V33ZM4.05,10.35a9.19,9.19,0,0,1-2-5.71V3.08a1,1,0,0,1,1-1H6.33l1,9.39a9.56,9.56,0,0,0,.32,1.61A9.32,9.32,0,0,1,4.05,10.35ZM31.92,0H3.08A3.08,3.08,0,0,0,0,3.08V4.64a11.24,11.24,0,0,0,2.45,7,11.46,11.46,0,0,0,5.27,3.62l1.08.36A10.3,10.3,0,0,0,14.42,20V21.6a1,1,0,0,1-1,1,3.08,3.08,0,0,0-3.08,3.07v1h-1a1,1,0,0,0-1,1V33h-1a1,1,0,1,0,0,2h20.5a1,1,0,1,0,0-2h-1v-5.2a1,1,0,0,0-1-1h-1v-1a3.08,3.08,0,0,0-3.08-3.07,1,1,0,0,1-1-1V20a10.22,10.22,0,0,0,5.61-4.39l1.15-.36h0A11.17,11.17,0,0,0,35,4.64V3.08A3.08,3.08,0,0,0,31.92,0Z"/><path class="cls-1" d="M18.84,9.25a1,1,0,0,0-.3.92l.13.72-.7-.36a1,1,0,0,0-.94,0l-.7.36.13-.72a1,1,0,0,0-.3-.92l-.52-.5.74-.1a1,1,0,0,0,.77-.55l.35-.7.35.7a1,1,0,0,0,.77.55l.74.1ZM21.75,7l-2.31-.33-1-2a1,1,0,0,0-1.84,0l-1,2L13.25,7a1,1,0,0,0-.56,1.76l1.65,1.57L14,12.57a1,1,0,0,0,.4,1,1,1,0,0,0,1.07.09L17.5,12.6l2.07,1.06a1,1,0,0,0,1.07-.09,1,1,0,0,0,.4-1l-.38-2.22,1.65-1.57A1,1,0,0,0,21.75,7Z"/></g></g></svg>