<svg xmlns="http://www.w3.org/2000/svg" viewBox="0 0 23.29 29.95"><defs><style>.cls-1{fill:#fff;}</style></defs><g id="Capa_2" data-name="Capa 2"><g id="Capa_1-2" data-name="Capa 1"><path class="cls-1" d="M18.33,10.12a8.16,8.16,0,0,1,1.81,4.72,8.39,8.39,0,0,1-.64,3.62A8.27,8.27,0,0,1,12,23.53V20.46a.21.21,0,0,0-.35-.15L5.33,25a.2.2,0,0,0,0,.31l6.32,4.65a.22.22,0,0,0,.35-.16V26.68a11.43,11.43,0,0,0,10.83-8.22,11.56,11.56,0,0,0,.39-4.53,11.26,11.26,0,0,0-2.41-5.76,1.58,1.58,0,1,0-2.48,1.95ZM.08,16A11.41,11.41,0,0,1,11.29,3.28V.2A.22.22,0,0,1,11.64,0L18,4.69A.2.2,0,0,1,18,5L11.65,9.65a.22.22,0,0,1-.35-.16V6.42a8.29,8.29,0,0,0-7.49,5.07A8.19,8.19,0,0,0,5,19.83a1.58,1.58,0,1,1-2.48,2A11.26,11.26,0,0,1,.08,16Z"/></g></g></svg>