<svg xmlns="http://www.w3.org/2000/svg" viewBox="0 0 42.92 39.93"><defs><style>.cls-1{fill:#fff;}</style></defs><g id="Capa_2" data-name="Capa 2"><g id="Capa_1-2" data-name="Capa 1"><path class="cls-1" d="M24.71,29.1a3.92,3.92,0,0,0-.79-.47l-.32-1.94L30,21c.09.43.2.86.33,1.28l.07.26A9.06,9.06,0,0,0,24.71,29.1Zm-4.77,2.42V29.88h2.21a2.52,2.52,0,0,1,2.37,1.64Zm-1.77-9.75a.81.81,0,0,0-.4-.52l-5.43-3.07a3.07,3.07,0,0,1-1.41-2,2.51,2.51,0,0,1,.09-1.4l2.44.65,3.11.84,3.08,3a5.24,5.24,0,0,1,1.49,2.78l1,6.19H19.68Zm-6.09.62.52-2.17,4,2.27,1.32,5.62A9.13,9.13,0,0,0,12.08,22.39Zm-1.83,7.73L11.7,24a7.42,7.42,0,0,1,5,6.12ZM9.2,38.29a7.36,7.36,0,1,1,0-14.71,8.46,8.46,0,0,1,.87.05L8.38,30.75a.84.84,0,0,0,.16.7.87.87,0,0,0,.66.31h7.48A7.48,7.48,0,0,1,9.2,38.29Zm.69-19.72A1.47,1.47,0,0,1,8.4,17.11v-.18h1a5,5,0,0,0,.88,1.64Zm8.18-10.9a3.07,3.07,0,0,1,4.24,0L29.58,14V15.7l-7.5-5.31a.89.89,0,0,0-.49-.16.91.91,0,0,0-.6.24l-4.23,4.14L14,13.86l-1.74-.47Zm7.29-6a2.07,2.07,0,0,1,2.09,2.05,2.1,2.1,0,0,1-4.19,0A2.08,2.08,0,0,1,25.36,1.64Zm3.06,18.57-5.13,4.55-.49-3h0a6.44,6.44,0,0,0-.49-1.56Zm1.24-1.64h-8.4c-.14-.16-.28-.31-.43-.46l-2.64-2.58,3.48-3.4,7.93,5.61C29.62,18,29.63,18.29,29.66,18.57Zm1.59-4.13h2a1.18,1.18,0,1,1,0,2.35H32.1a.83.83,0,0,0-.83.73c0-.25,0-.49,0-.74Zm10.5,18.91a.85.85,0,0,0-1.1.44,7.57,7.57,0,0,1-14.31-1.41v0a4.09,4.09,0,0,0-.14-1.05c0-.11,0-.23,0-.35a7.39,7.39,0,0,1,4.69-6.82l2,7a.84.84,0,0,0,1,.57.82.82,0,0,0,.58-1l-2-7a6.93,6.93,0,0,1,1.22-.1A7.53,7.53,0,0,1,40.62,28a.84.84,0,0,0,1.1.42.81.81,0,0,0,.43-1.08A9.3,9.3,0,0,0,32,22.09L32,21.84a18.8,18.8,0,0,1-.54-2.56h0q-.11-.75-.15-1.5a.84.84,0,0,0,.82.65h1.15a2.81,2.81,0,1,0,0-5.62H30.73L24.31,7.23a3.6,3.6,0,0,0,1.05.15,3.74,3.74,0,0,0,3.77-3.69,3.78,3.78,0,0,0-7.55,0,3.59,3.59,0,0,0,.54,1.89,4.83,4.83,0,0,0-1.93-.4,4.72,4.72,0,0,0-3.31,1.33L10,13.23h0L10,13.3h0a3.68,3.68,0,0,0-.73,2H7.56a.83.83,0,0,0-.84.82v1a3.14,3.14,0,0,0,3.17,3.1h1L10.45,22a10.36,10.36,0,0,0-1.25-.08,9.12,9.12,0,0,0-9.2,9,8.94,8.94,0,0,0,3.91,7.35H.84a.82.82,0,1,0,0,1.64H9.2a9.16,9.16,0,0,0,9.07-7.49.82.82,0,0,0,.83.72h5.7a9,9,0,0,0,3.63,5.13H23.11a.82.82,0,1,0,0,1.64H33.72a9.18,9.18,0,0,0,8.48-5.51A.81.81,0,0,0,41.75,33.35Z"/><path class="cls-1" d="M42.08,30.12a.83.83,0,0,0-.84.82v0a.83.83,0,0,0,.84.83h0a.84.84,0,0,0,.84-.82v0A.83.83,0,0,0,42.08,30.12Z"/><path class="cls-1" d="M20.4,38.53a.85.85,0,0,0-1.18,0,.83.83,0,0,0-.25.58.79.79,0,0,0,.25.58.85.85,0,0,0,1.18,0,.79.79,0,0,0,.25-.58A.83.83,0,0,0,20.4,38.53Z"/></g></g></svg>