<svg xmlns="http://www.w3.org/2000/svg" viewBox="0 0 34.91 40"><defs><style>.cls-1{fill:#fff;}</style></defs><g id="Capa_2" data-name="Capa 2"><g id="Capa_1-2" data-name="Capa 1"><path class="cls-1" d="M20.22,20.86a2.91,2.91,0,0,1-5.82,0v-.68a2.91,2.91,0,0,1,5.82,0ZM31.81,11.8a3,3,0,0,0-3.09,3v.5a8.53,8.53,0,0,1-7.29,8.27,4.6,4.6,0,0,0,.86-2.67v-.68a4.87,4.87,0,0,0-5-4.76,4.88,4.88,0,0,0-5,4.76v.68a4.57,4.57,0,0,0,.82,2.61,8.51,8.51,0,0,1-7-8.21v-.5a3,3,0,0,0-3.09-3,3,3,0,0,0-3.1,3v.5A13.71,13.71,0,0,0,1.25,21l1.11,2c.22.33.47.66.72,1l.21.25,2.07,2a15.11,15.11,0,0,0,4.75,2.58V39a1,1,0,0,0,2.07,0V28.08a1,1,0,0,0-.75-.95A12.49,12.49,0,0,1,2.06,15.26v-.5a1,1,0,0,1,1-1,1,1,0,0,1,1,1v.5A10.63,10.63,0,0,0,15,25.63h5A10.63,10.63,0,0,0,30.78,15.26v-.5a1,1,0,0,1,2.07,0v.5a12.47,12.47,0,0,1-9.58,11.93,1,1,0,0,0-.77.95v7.15a1,1,0,0,0,2.07,0V28.88A14.42,14.42,0,0,0,34.91,15.26v-.5A3,3,0,0,0,31.81,11.8Z"/><path class="cls-1" d="M24.26,38.31a1.06,1.06,0,0,0-1.46,0,1,1,0,0,0-.3.7,1,1,0,0,0,.3.7,1.06,1.06,0,0,0,1.46,0,1,1,0,0,0,.3-.7A1,1,0,0,0,24.26,38.31Z"/><path class="cls-1" d="M25.41,0a1,1,0,0,0-1,1V2.22a1,1,0,0,0,2.06,0V1A1,1,0,0,0,25.41,0Z"/><path class="cls-1" d="M25.41,5.93a1,1,0,0,0-1,1V8.14a1,1,0,0,0,2.06,0V6.91A1,1,0,0,0,25.41,5.93Z"/><path class="cls-1" d="M29.07,3.56H27.79a1,1,0,0,0-1,1,1,1,0,0,0,1,1h1.28a1,1,0,1,0,0-2Z"/><path class="cls-1" d="M23,3.56H21.69a1,1,0,1,0,0,2H23a1,1,0,1,0,0-2Z"/><path class="cls-1" d="M12.71,4.54a1,1,0,0,0-1,1V6.76a1,1,0,0,0,2.06,0V5.53A1,1,0,0,0,12.71,4.54Z"/><path class="cls-1" d="M12.71,10.37a1,1,0,0,0-1,1v1.23a1,1,0,0,0,2.06,0V11.36A1,1,0,0,0,12.71,10.37Z"/><path class="cls-1" d="M16.47,8.1H15.19a1,1,0,1,0,0,2h1.28a1,1,0,1,0,0-2Z"/><path class="cls-1" d="M10.28,8.1H9a1,1,0,1,0,0,2h1.28a1,1,0,1,0,0-2Z"/></g></g></svg>