<svg xmlns="http://www.w3.org/2000/svg" viewBox="0 0 20 20"><defs><style>.cls-1{fill:#fff;}</style></defs><g id="Capa_2" data-name="Capa 2"><g id="Capa_1-2" data-name="Capa 1"><path class="cls-1" d="M10.42,19.15V17.92a.42.42,0,0,0-.84,0v1.23A9.18,9.18,0,0,1,.85,10.42H2.08a.42.42,0,0,0,0-.84H.85A9.18,9.18,0,0,1,9.58.85V2.08a.42.42,0,0,0,.84,0V.85a9.18,9.18,0,0,1,8.73,8.73H17.92a.42.42,0,0,0,0,.84h1.23A9.18,9.18,0,0,1,10.42,19.15ZM10,0A10,10,0,1,0,20,10,10,10,0,0,0,10,0Z"/><path class="cls-1" d="M10.79,10.2a.65.65,0,0,0,0-.2.81.81,0,0,0-.15-.46l2.61-5.61a.42.42,0,0,0-.2-.56.43.43,0,0,0-.55.2L9.92,9.18A.83.83,0,0,0,10,10.83a.65.65,0,0,0,.2,0L13.46,14A.39.39,0,0,0,14,14a.39.39,0,0,0,0-.58Z"/></g></g></svg>