<svg xmlns="http://www.w3.org/2000/svg" viewBox="0 0 24.93 23.47"><defs><style>.cls-1{fill:#fff;fill-rule:evenodd;}</style></defs><g id="Capa_2" data-name="Capa 2"><g id="Capa_1-2" data-name="Capa 1"><path class="cls-1" d="M18.38,14.53V12.8h2.39l-.55,1.73ZM9,12.8h2.46v1.73H9.63Zm2.46-7.07v1.8H7.21l-.63-1.8Zm1.6,1.8h3.69V5.73H13.09ZM7.76,9.13h3.73V11.2h-3Zm5.33,5.4h3.69V12.8H13.09Zm0-3.33h3.69V9.13H13.09Zm8.19,0h-2.9V9.13H22Zm1.18-3.67H18.38V5.73H23Zm-4.19,14.6a1.07,1.07,0,1,1,1.06-1.06A1.07,1.07,0,0,1,18.27,22.13Zm-8.8,0a1.07,1.07,0,1,1,1.06-1.06A1.07,1.07,0,0,1,9.47,22.13ZM24.78,4.46a.82.82,0,0,0-.65-.33H6L5.29,2a.84.84,0,0,0-.46-.48L1.09.06a.79.79,0,0,0-1,.45.79.79,0,0,0,.45,1L3.9,2.88l4.15,12a.65.65,0,0,0-.41.4l-1.2,3.33a.69.69,0,0,0,.08.61.68.68,0,0,0,.55.29h.61a2.37,2.37,0,0,0-.61,1.6,2.4,2.4,0,1,0,4.18-1.6h5.23a2.37,2.37,0,0,0-.61,1.6,2.4,2.4,0,1,0,4.18-1.6h.75a.67.67,0,1,0,0-1.34H8l.74-2.06a.78.78,0,0,0,.31.06H20.8a.79.79,0,0,0,.76-.55l3.33-10.4A.8.8,0,0,0,24.78,4.46Z"/></g></g></svg>