<svg xmlns="http://www.w3.org/2000/svg" viewBox="0 0 45 40"><defs><style>.cls-1{fill:#fff;}</style></defs><g id="Capa_2" data-name="Capa 2"><g id="Capa_1-2" data-name="Capa 1"><path class="cls-1" d="M3.25,34.84a.88.88,0,0,0-.88.88h0a.88.88,0,0,0,1.76,0h0A.87.87,0,0,0,3.25,34.84Z"/><path class="cls-1" d="M12.15,13.85a.88.88,0,0,0-1.23.12l0,0A.87.87,0,0,0,11,15.22a.88.88,0,0,0,1.24-.12v0A.86.86,0,0,0,12.15,13.85Z"/><path class="cls-1" d="M4.75,38.25h-3V20.86h3ZM38,8.36A7,7,0,0,0,33.49,10,7,7,0,0,0,22,15.51a7.37,7.37,0,0,0,.89,3.18H17.6l2.07-4.46a5.69,5.69,0,0,0-.85-6.11l-.86-1a.89.89,0,0,0-.68-.31.88.88,0,0,0-.67.32l-3.34,4a.87.87,0,0,0,.11,1.23.88.88,0,0,0,1.24-.12L17.3,9l.19.22a4,4,0,0,1,.59,4.24l-2.66,5.7a.87.87,0,0,0,.06.83.89.89,0,0,0,.74.41H31.64A1.55,1.55,0,0,1,33.2,22v0a1.55,1.55,0,0,1-1.56,1.55H20.34a.88.88,0,1,0,0,1.75h6.54a1.54,1.54,0,0,1,1.08.43l.16.18a1.55,1.55,0,0,1,.32.94v0a1.55,1.55,0,0,1-1.56,1.55H20.34a.88.88,0,1,0,0,1.75h6.54a1.55,1.55,0,0,1,1.56,1.55v0a1.55,1.55,0,0,1-1.56,1.55H20.34a.88.88,0,1,0,0,1.75H23.9a1.55,1.55,0,0,1,1.56,1.55v0a1.55,1.55,0,0,1-1.56,1.55H11.18a9.72,9.72,0,0,1-3.45-.64L6.5,37.13V22l3.58-4.29a.88.88,0,0,0-1.36-1.11L6.33,19.47a.88.88,0,0,0-.7-.36H.88A.88.88,0,0,0,0,20V39.13A.87.87,0,0,0,.88,40H5.63a.87.87,0,0,0,.87-.87V39l.59.23a11.25,11.25,0,0,0,4.09.77H23.9a3.31,3.31,0,0,0,3.32-3.3v0a3.24,3.24,0,0,0-.39-1.55h.05a3.31,3.31,0,0,0,3.32-3.3v0a3.25,3.25,0,0,0-1.07-2.42A3.36,3.36,0,0,0,30,28c1.59,1.65,2.79,2.76,2.87,2.83a.86.86,0,0,0,.6.24.84.84,0,0,0,.59-.24c.07-.06,1.67-1.54,3.65-3.65a.86.86,0,0,0,0-1.23.88.88,0,0,0-1.24,0c-1.22,1.31-2.31,2.38-2.95,3-.75-.72-2.1-2.05-3.56-3.65h1.71A3.31,3.31,0,0,0,35,22v0a3.31,3.31,0,0,0-3.32-3.3h-6.8a6.87,6.87,0,0,1-1.11-3.18A5.35,5.35,0,0,1,29,10.11a5.2,5.2,0,0,1,3.83,1.68.88.88,0,0,0,.65.28.86.86,0,0,0,.64-.28A5.2,5.2,0,0,1,38,10.11a5.35,5.35,0,0,1,5.28,5.4c0,.85-.43,2.46-2.51,5.35a.88.88,0,0,0,.2,1.22.9.9,0,0,0,.51.16.88.88,0,0,0,.72-.37C44.07,19.21,45,17.13,45,15.51A7.11,7.11,0,0,0,38,8.36Z"/><path class="cls-1" d="M39.75,23.57a.88.88,0,0,0-1.24.1l0,0a.88.88,0,0,0,.1,1.24.94.94,0,0,0,.57.2.85.85,0,0,0,.67-.31l.05-.05A.87.87,0,0,0,39.75,23.57Z"/><path class="cls-1" d="M33.49,0a.87.87,0,0,0-.88.87V4.72a.88.88,0,1,0,1.76,0V.87A.88.88,0,0,0,33.49,0Z"/><path class="cls-1" d="M28.38,3.75l-1.16-2a.88.88,0,0,0-1.53.88l1.17,2a.87.87,0,0,0,1.2.32A.86.86,0,0,0,28.38,3.75Z"/><path class="cls-1" d="M41,1.41a.89.89,0,0,0-1.2.32l-1.17,2a.87.87,0,0,0,.32,1.19.87.87,0,0,0,1.2-.32l1.17-2A.88.88,0,0,0,41,1.41Z"/></g></g></svg>