<svg xmlns="http://www.w3.org/2000/svg" viewBox="0 0 20 20"><defs><style>.cls-1{fill:#fff;}</style></defs><g id="Capa_2" data-name="Capa 2"><g id="Capa_1-2" data-name="Capa 1"><path class="cls-1" d="M10,0A10,10,0,1,0,20,10,10,10,0,0,0,10,0Zm0,1.25A8.7,8.7,0,0,1,18.75,10,8.69,8.69,0,0,1,10,18.75,8.7,8.7,0,0,1,1.25,10,8.7,8.7,0,0,1,10,1.25Z"/><path class="cls-1" d="M10,16.5a6.24,6.24,0,0,1-5.75-3.87l1.13-.5a4.92,4.92,0,0,0,4.62,3,5.12,5.12,0,0,0,4.63-3l1.12.5A6,6,0,0,1,10,16.5Z"/><circle class="cls-1" cx="7.5" cy="7.5" r="1.25"/><circle class="cls-1" cx="12.5" cy="7.5" r="1.25"/></g></g></svg>