<svg xmlns="http://www.w3.org/2000/svg" viewBox="0 0 19.99 19.99"><defs><style>.cls-1{fill:#fff;}</style></defs><g id="Capa_2" data-name="Capa 2"><g id="Capa_1-2" data-name="Capa 1"><path class="cls-1" d="M16.42,10a.71.71,0,0,0-.71.71v7.14a.71.71,0,0,1-.71.72H2.14a.71.71,0,0,1-.71-.72V3.57a.71.71,0,0,1,.71-.71h8.57a.72.72,0,1,0,0-1.43H2.14A2.14,2.14,0,0,0,0,3.57V17.85A2.14,2.14,0,0,0,2.14,20H15a2.14,2.14,0,0,0,2.14-2.14V10.71A.71.71,0,0,0,16.42,10Z"/><path class="cls-1" d="M19.19.8a2.73,2.73,0,0,0-3.86,0L5.92,10.21a.73.73,0,0,0-.17.28L4.32,14.77a.72.72,0,0,0,.45.9.62.62,0,0,0,.23,0,.54.54,0,0,0,.22,0l4.29-1.42a.84.84,0,0,0,.28-.18l9.4-9.4A2.73,2.73,0,0,0,19.19.8Z"/></g></g></svg>