<svg xmlns="http://www.w3.org/2000/svg" viewBox="0 0 29.56 27.92"><g id="Capa_2" data-name="Capa 2"><g id="Capa_1-2" data-name="Capa 1"><path d="M27,18.19a.64.64,0,0,0-.52.41.61.61,0,0,0,.17.64,1.5,1.5,0,0,1-.88,2.59.63.63,0,0,0-.52.42.6.6,0,0,0,.17.63,1.5,1.5,0,0,1,.44,1.45,1.59,1.59,0,0,1-1.59,1.17H12.93a5.93,5.93,0,0,1-3.26-1A.63.63,0,0,0,9,24.33a.6.6,0,0,0-.38.56,1.84,1.84,0,0,1-1.85,1.82H3.08a1.84,1.84,0,0,1-1.85-1.82V15.18a1.84,1.84,0,0,1,1.85-1.83H8.62V14a.61.61,0,0,0,.29.52.64.64,0,0,0,.6,0l1.23-.61a.63.63,0,0,0,.29-.29l3.69-7.89a.58.58,0,0,0,.06-.26V1.54A2.59,2.59,0,0,1,16,1.21c.67,0,2.46,1.66,2.46,3.65a18.72,18.72,0,0,1-1.19,5.24.61.61,0,0,0,.58.83h8.47a1.94,1.94,0,0,1,2,1.65,1.83,1.83,0,0,1-.88,1.72.58.58,0,0,0-.29.54.59.59,0,0,0,.33.51A1.5,1.5,0,0,1,27,18.19Zm2.6-1.5a2.67,2.67,0,0,0-.81-1.91,3,3,0,0,0,.79-2.31,3.16,3.16,0,0,0-3.21-2.76H18.72a17,17,0,0,0,1-4.85C19.7,2.22,17.43,0,16,0a3.89,3.89,0,0,0-2.23.74.58.58,0,0,0-.23.47V5.33L10,12.91,9.85,13v-.23a.61.61,0,0,0-.61-.61H3.08a3.06,3.06,0,0,0-3.08,3v9.71a3.06,3.06,0,0,0,3.08,3H6.77a3.08,3.08,0,0,0,2.9-2,8.11,8.11,0,0,0,3.26.79h11.3A2.81,2.81,0,0,0,27,24.59a2.65,2.65,0,0,0-.22-1.82,2.72,2.72,0,0,0,1.52-2.43A2.8,2.8,0,0,0,28,19.12,2.72,2.72,0,0,0,29.56,16.69Z"/><path d="M9.24,13.35a.62.62,0,0,0-.62.61V24.89a.62.62,0,0,0,.62.61.61.61,0,0,0,.61-.61V14A.61.61,0,0,0,9.24,13.35Z"/></g></g></svg>